<svg xmlns="http://www.w3.org/2000/svg" width="22.5" height="51.608" viewBox="0 0 22.5 51.608">
  <path id="facebook" d="M13.958,50.958a.63.63,0,0,0,.61.65h8.7a.63.63,0,0,0,.61-.65V25.6h6.3a.627.627,0,0,0,.608-.6l.605-7.638a.677.677,0,0,0-.158-.494.594.594,0,0,0-.449-.211H23.873v-5.42a2.233,2.233,0,0,1,2.158-2.3H30.89a.63.63,0,0,0,.61-.65V.65A.631.631,0,0,0,30.89,0H22.682C17.865,0,13.96,4.161,13.96,9.294v7.367H9.61A.631.631,0,0,0,9,17.31v7.641a.63.63,0,0,0,.61.65h4.348Z" transform="translate(-9)" fill="#fff" fill-rule="evenodd"/>
</svg>
