<svg xmlns="http://www.w3.org/2000/svg" width="51.608" height="51.608" viewBox="0 0 51.608 51.608">
  <path id="instagram" d="M46.739,36.062A10.676,10.676,0,0,1,36.062,46.739H15.545A10.676,10.676,0,0,1,4.869,36.062V15.544A10.676,10.676,0,0,1,15.545,4.867H36.062A10.676,10.676,0,0,1,46.739,15.544V36.062Zm4.869-20.519A15.545,15.545,0,0,0,36.061,0H15.547A15.544,15.544,0,0,0,0,15.544V36.062A15.547,15.547,0,0,0,15.547,51.608H36.061A15.547,15.547,0,0,0,51.608,36.061ZM25.891,34.3a8.164,8.164,0,1,1,8.164-8.164A8.173,8.173,0,0,1,25.891,34.3Zm0-20.908A12.744,12.744,0,1,0,38.636,26.136,12.759,12.759,0,0,0,25.891,13.392ZM39.38,9.5a3.034,3.034,0,1,0,3.034,3.034A3.034,3.034,0,0,0,39.38,9.5Z" fill="#fff"/>
</svg>
